<svg id="Layer_1" data-name="Layer 1" xmlns="http://www.w3.org/2000/svg" viewBox="0 0 785.46 344.21"><defs><style>.cls-1{fill:#1d1d1b;}</style></defs><title>logo</title><path class="cls-1" d="M521.17,136.2s65.45,68.89,55.23,135.07L790.63,9,651,9a50.66,50.66,0,0,0-26.55,7.39,90.42,90.42,0,0,0-23.5,21.15Z" transform="translate(-5.17 -8.95)"/><path class="cls-1" d="M274.63,136.2s-65.45,68.89-55.24,135.07L5.17,9,144.84,9a50.66,50.66,0,0,1,26.55,7.39,90.4,90.4,0,0,1,23.49,21.15Z" transform="translate(-5.17 -8.95)"/><path class="cls-1" d="M560.58,228.36c-8.32-28.1-25.64-53.76-38.33-70-8.68-11.07-15.19-17.73-15.19-17.73l-10.91-12.73c-3-3.39-6.24-7-9.63-10.9-5.64-6.5-11.15-13.11-16.66-19.72L438.69,61a58.22,58.22,0,0,0-40.61-16.44h-.37A58.22,58.22,0,0,0,357.1,61l-31.17,36.3c-5.5,6.61-11,13.22-16.66,19.72-3.38,3.9-6.58,7.51-9.63,10.9l-10.9,12.73s-6.52,6.66-15.19,17.73c-12.7,16.21-30,41.87-38.34,70-4.46,15.06-6.33,30.82-3.52,46.2a75.47,75.47,0,0,0,6.6,20h0l43.06,58.62,21.43-26.23,75.51-92.39,6.59-8c3.06-3.72,6.14-7.44,9.11-11.22.19-.24.38-.46.56-.66a4,4,0,0,1,6.7,0c.18.2.36.42.55.66,3,3.78,6.05,7.5,9.11,11.22l6.6,8L493,326.94l21.43,26.23,43.07-58.62h0a75.08,75.08,0,0,0,6.59-20C566.91,259.18,565,243.42,560.58,228.36Z" transform="translate(-5.17 -8.95)"/></svg>